<?xml version="1.0" encoding="UTF-8" standalone="no"?>
<svg xmlns="http://www.w3.org/2000/svg" version="1.1" viewBox="0.00 0.00 1000.00 624.00">
<g stroke-width="2.00" fill="none" stroke-linecap="butt">
<path stroke="#8b8a8d" vector-effect="non-scaling-stroke" d="
  M 321.05 360.53
  C 278.98 360.07 241.05 342.95 214.16 310.99
  C 196.88 290.44 187.03 265.44 184.72 238.25
  Q 181.21 196.89 197.82 160.98
  Q 220.09 112.83 268.01 93.32
  C 282.49 87.42 299.33 84.04 314.25 83.78
  Q 375.36 82.71 421.86 121.90
  Q 433.49 131.70 443.48 143.04
  A 0.56 0.55 -41.8 0 0 444.27 143.08
  L 489.30 102.03
  A 0.60 0.59 48.9 0 0 489.35 101.21
  Q 471.49 80.41 450.87 64.53
  Q 415.88 37.56 370.80 27.78
  C 322.60 17.32 273.08 19.72 228.45 39.93
  C 175.97 63.69 137.65 111.25 122.73 166.62
  C 105.60 230.19 117.36 299.19 160.33 350.05
  Q 205.91 404.00 277.87 418.65
  Q 296.16 422.38 318.84 423.21
  C 349.43 424.33 379.01 419.84 406.47 407.92
  Q 434.81 395.61 460.67 374.84
  Q 460.86 374.68 460.72 374.49
  L 424.97 325.26
  A 0.54 0.54 0.0 0 0 424.21 325.14
  C 394.00 347.34 358.90 360.95 321.05 360.53"
/>
<path stroke="#194e4a" vector-effect="non-scaling-stroke" d="
  M 790.57 292.15
  Q 791.32 292.11 791.99 292.62
  C 817.89 312.09 854.42 313.97 882.64 298.39
  C 909.22 283.71 925.91 256.94 927.00 226.71
  C 928.67 180.43 893.68 141.08 847.35 138.37
  Q 815.15 136.49 790.08 155.61
  C 767.62 172.74 755.92 198.72 756.34 227.00
  Q 756.52 239.30 756.55 252.50
  Q 756.73 341.21 756.56 425.18
  A 1.32 1.31 86.0 0 1 755.43 426.49
  Q 739.84 428.75 725.85 436.45
  C 724.88 436.98 723.48 437.01 722.52 436.45
  Q 566.63 345.71 410.69 255.11
  A 1.62 1.61 -65.3 0 1 409.98 253.17
  C 431.36 193.17 384.74 132.75 321.43 138.56
  C 297.64 140.74 275.76 153.39 261.80 172.15
  C 243.22 197.09 239.08 230.51 252.38 258.96
  C 268.69 293.83 304.65 313.44 342.86 307.81
  Q 370.58 303.72 391.67 282.44
  A 1.49 1.48 38.3 0 1 393.51 282.23
  Q 395.75 283.61 397.85 284.84
  Q 539.85 367.76 698.05 459.59
  A 1.07 1.05 -56.2 0 1 698.35 461.15
  C 685.91 477.39 680.57 499.71 682.60 519.35
  C 685.68 549.14 703.96 575.78 731.48 588.37
  C 765.35 603.86 804.50 596.25 829.71 569.28
  Q 849.48 548.13 852.35 519.73
  Q 855.67 486.86 835.90 459.93
  Q 819.55 437.67 791.39 428.92
  A 2.03 2.02 8.6 0 1 789.96 426.99
  L 789.98 292.77
  A 0.63 0.62 -2.0 0 1 790.57 292.15"
/>
<path stroke="#8b8a8d" vector-effect="non-scaling-stroke" d="
  M 613.72 220.44
  A 0.37 0.37 0.0 0 1 613.10 220.44
  L 557.85 139.55
  A 0.77 0.77 0.0 0 0 557.21 139.21
  L 521.03 139.20
  Q 520.50 139.20 520.50 139.72
  L 520.50 308.60
  A 0.85 0.85 0.0 0 0 521.35 309.45
  L 554.98 309.43
  A 0.57 0.56 90.0 0 0 555.54 308.86
  Q 555.58 253.37 555.53 198.42
  Q 555.53 197.91 555.88 197.55
  A 0.79 0.79 0.0 0 1 557.10 197.65
  L 605.20 268.34
  Q 605.59 268.91 606.28 268.91
  L 619.60 268.88
  A 1.18 1.18 0.0 0 0 620.58 268.36
  L 668.06 197.61
  A 0.72 0.68 16.6 0 1 668.67 197.30
  Q 669.55 197.31 669.55 197.75
  Q 669.52 253.56 669.56 309.14
  A 0.31 0.30 0.0 0 0 669.87 309.44
  L 705.28 309.44
  A 0.72 0.71 -90.0 0 0 705.99 308.72
  L 706.00 139.77
  Q 706.00 139.18 705.40 139.18
  L 669.41 139.21
  Q 668.86 139.21 668.55 139.67
  L 613.72 220.44"
/>
<path stroke="#8b8a8d" vector-effect="non-scaling-stroke" d="
  M 252.09 565.19
  A 0.40 0.40 0.0 0 1 252.46 565.42
  L 266.39 596.13
  A 0.40 0.40 0.0 0 0 266.76 596.36
  L 298.54 596.39
  A 0.40 0.40 0.0 0 0 298.91 595.83
  L 223.76 426.25
  A 0.40 0.40 0.0 0 0 223.39 426.01
  L 191.27 426.00
  A 0.40 0.40 0.0 0 0 190.90 426.24
  L 115.76 595.82
  A 0.40 0.40 0.0 0 0 116.13 596.38
  L 147.35 596.36
  A 0.40 0.40 0.0 0 0 147.72 596.12
  L 161.37 565.43
  A 0.40 0.40 0.0 0 1 161.74 565.19
  L 252.09 565.19"
/>
<path stroke="#8b8a8d" vector-effect="non-scaling-stroke" d="
  M 375.99 510.31
  A 0.44 0.44 0.0 0 1 375.55 509.87
  L 375.58 482.14
  A 0.44 0.44 0.0 0 1 376.02 481.70
  L 457.77 481.70
  A 0.44 0.44 0.0 0 0 458.21 481.26
  L 458.22 454.87
  A 0.44 0.44 0.0 0 0 457.78 454.43
  L 345.68 454.42
  A 0.44 0.44 0.0 0 0 345.24 454.86
  L 345.24 595.93
  A 0.44 0.44 0.0 0 0 345.68 596.37
  L 460.56 596.35
  A 0.44 0.44 0.0 0 0 461.00 595.91
  L 461.02 569.86
  A 0.44 0.44 0.0 0 0 460.58 569.42
  L 376.01 569.47
  A 0.44 0.44 0.0 0 1 375.57 569.03
  L 375.58 537.73
  A 0.44 0.44 0.0 0 1 376.02 537.29
  L 448.97 537.29
  A 0.44 0.44 0.0 0 0 449.41 536.85
  L 449.41 510.76
  A 0.44 0.44 0.0 0 0 448.97 510.32
  L 375.99 510.31"
/>
<path stroke="#8b8a8d" vector-effect="non-scaling-stroke" d="
  M 542.08 559.21
  L 578.53 559.21
  A 1.08 1.07 -13.7 0 1 579.48 559.78
  L 598.93 595.73
  A 1.19 1.17 75.2 0 0 599.96 596.34
  L 633.29 596.38
  Q 633.91 596.38 633.60 595.84
  L 608.57 552.97
  A 0.36 0.36 0.0 0 1 608.70 552.48
  Q 614.97 548.92 620.36 543.89
  C 636.73 528.58 640.59 503.83 630.97 483.78
  Q 622.91 466.98 604.90 459.18
  Q 594.27 454.58 584.67 454.52
  Q 554.88 454.35 511.57 454.46
  Q 511.01 454.46 511.01 455.02
  L 511.01 595.81
  A 0.59 0.59 0.0 0 0 511.60 596.40
  L 540.81 596.37
  A 0.62 0.61 90.0 0 0 541.42 595.75
  L 541.36 559.93
  Q 541.36 559.21 542.08 559.21"
/>



</g>

<path fill="#e7e6eb" d="
  M 214.16 310.99
  C 241.05 342.95 278.98 360.07 321.05 360.53
  C 358.90 360.95 394.00 347.34 424.21 325.14
  A 0.54 0.54 0.0 0 1 424.97 325.26
  L 460.72 374.49
  Q 460.86 374.68 460.67 374.84
  Q 434.81 395.61 406.47 407.92
  C 379.01 419.84 349.43 424.33 318.84 423.21
  Q 296.16 422.38 277.87 418.65
  Q 205.91 404.00 160.33 350.05
  C 117.36 299.19 105.60 230.19 122.73 166.62
  C 137.65 111.25 175.97 63.69 228.45 39.93
  C 273.08 19.72 322.60 17.32 370.80 27.78
  Q 415.88 37.56 450.87 64.53
  Q 471.49 80.41 489.35 101.21
  A 0.60 0.59 48.9 0 1 489.30 102.03
  L 444.27 143.08
  A 0.56 0.55 -41.8 0 1 443.48 143.04
  Q 433.49 131.70 421.86 121.90
  Q 375.36 82.71 314.25 83.78
  C 299.33 84.04 282.49 87.42 268.01 93.32
  Q 220.09 112.83 197.82 160.98
  Q 181.21 196.89 184.72 238.25
  C 187.03 265.44 196.88 290.44 214.16 310.99
  Z"
/>
<path fill="#036e66" d="
  M 790.57 292.15
  A 0.63 0.62 -2.0 0 0 789.98 292.77
  L 789.96 426.99
  A 2.03 2.02 8.6 0 0 791.39 428.92
  Q 819.55 437.67 835.90 459.93
  Q 855.67 486.86 852.35 519.73
  Q 849.48 548.13 829.71 569.28
  C 804.50 596.25 765.35 603.86 731.48 588.37
  C 703.96 575.78 685.68 549.14 682.60 519.35
  C 680.57 499.71 685.91 477.39 698.35 461.15
  A 1.07 1.05 -56.2 0 0 698.05 459.59
  Q 539.85 367.76 397.85 284.84
  Q 395.75 283.61 393.51 282.23
  A 1.49 1.48 38.3 0 0 391.67 282.44
  Q 370.58 303.72 342.86 307.81
  C 304.65 313.44 268.69 293.83 252.38 258.96
  C 239.08 230.51 243.22 197.09 261.80 172.15
  C 275.76 153.39 297.64 140.74 321.43 138.56
  C 384.74 132.75 431.36 193.17 409.98 253.17
  A 1.62 1.61 -65.3 0 0 410.69 255.11
  Q 566.63 345.71 722.52 436.45
  C 723.48 437.01 724.88 436.98 725.85 436.45
  Q 739.84 428.75 755.43 426.49
  A 1.32 1.31 86.0 0 0 756.56 425.18
  Q 756.73 341.21 756.55 252.50
  Q 756.52 239.30 756.34 227.00
  C 755.92 198.72 767.62 172.74 790.08 155.61
  Q 815.15 136.49 847.35 138.37
  C 893.68 141.08 928.67 180.43 927.00 226.71
  C 925.91 256.94 909.22 283.71 882.64 298.39
  C 854.42 313.97 817.89 312.09 791.99 292.62
  Q 791.32 292.11 790.57 292.15
  Z
  M 381.79 223.43
  A 51.82 51.82 0.0 0 0 329.97 171.61
  A 51.82 51.82 0.0 0 0 278.15 223.43
  A 51.82 51.82 0.0 0 0 329.97 275.25
  A 51.82 51.82 0.0 0 0 381.79 223.43
  Z
  M 893.64 223.44
  A 51.82 51.82 0.0 0 0 841.82 171.62
  A 51.82 51.82 0.0 0 0 790.00 223.44
  A 51.82 51.82 0.0 0 0 841.82 275.26
  A 51.82 51.82 0.0 0 0 893.64 223.44
  Z
  M 819.35 510.97
  A 51.83 51.83 0.0 0 0 767.52 459.14
  A 51.83 51.83 0.0 0 0 715.69 510.97
  A 51.83 51.83 0.0 0 0 767.52 562.80
  A 51.83 51.83 0.0 0 0 819.35 510.97
  Z"
/>
<path fill="#e7e6eb" d="
  M 613.72 220.44
  L 668.55 139.67
  Q 668.86 139.21 669.41 139.21
  L 705.40 139.18
  Q 706.00 139.18 706.00 139.77
  L 705.99 308.72
  A 0.72 0.71 90.0 0 1 705.28 309.44
  L 669.87 309.44
  A 0.31 0.30 -0.0 0 1 669.56 309.14
  Q 669.52 253.56 669.55 197.75
  Q 669.55 197.31 668.67 197.30
  A 0.72 0.68 16.6 0 0 668.06 197.61
  L 620.58 268.36
  A 1.18 1.18 0.0 0 1 619.60 268.88
  L 606.28 268.91
  Q 605.59 268.91 605.20 268.34
  L 557.10 197.65
  A 0.79 0.79 0.0 0 0 555.88 197.55
  Q 555.53 197.91 555.53 198.42
  Q 555.58 253.37 555.54 308.86
  A 0.57 0.56 -90.0 0 1 554.98 309.43
  L 521.35 309.45
  A 0.85 0.85 0.0 0 1 520.50 308.60
  L 520.50 139.72
  Q 520.50 139.20 521.03 139.20
  L 557.21 139.21
  A 0.77 0.77 0.0 0 1 557.85 139.55
  L 613.10 220.44
  A 0.37 0.37 0.0 0 0 613.72 220.44
  Z"
/>
<path fill="#e7e6eb" d="
  M 252.09 565.19
  L 161.74 565.19
  A 0.40 0.40 0.0 0 0 161.37 565.43
  L 147.72 596.12
  A 0.40 0.40 0.0 0 1 147.35 596.36
  L 116.13 596.38
  A 0.40 0.40 0.0 0 1 115.76 595.82
  L 190.90 426.24
  A 0.40 0.40 0.0 0 1 191.27 426.00
  L 223.39 426.01
  A 0.40 0.40 0.0 0 1 223.76 426.25
  L 298.91 595.83
  A 0.40 0.40 0.0 0 1 298.54 596.39
  L 266.76 596.36
  A 0.40 0.40 0.0 0 1 266.39 596.13
  L 252.46 565.42
  A 0.40 0.40 0.0 0 0 252.09 565.19
  Z
  M 208.43 456.93
  A 0.37 0.37 0.0 0 0 208.09 456.70
  L 205.14 456.74
  A 0.37 0.37 0.0 0 0 204.80 456.97
  L 173.33 537.09
  A 0.37 0.37 0.0 0 0 173.67 537.60
  L 240.42 537.60
  A 0.37 0.37 0.0 0 0 240.76 537.09
  L 208.43 456.93
  Z"
/>
<path fill="#e7e6eb" d="
  M 375.99 510.31
  L 448.97 510.32
  A 0.44 0.44 0.0 0 1 449.41 510.76
  L 449.41 536.85
  A 0.44 0.44 0.0 0 1 448.97 537.29
  L 376.02 537.29
  A 0.44 0.44 0.0 0 0 375.58 537.73
  L 375.57 569.03
  A 0.44 0.44 0.0 0 0 376.01 569.47
  L 460.58 569.42
  A 0.44 0.44 0.0 0 1 461.02 569.86
  L 461.00 595.91
  A 0.44 0.44 0.0 0 1 460.56 596.35
  L 345.68 596.37
  A 0.44 0.44 0.0 0 1 345.24 595.93
  L 345.24 454.86
  A 0.44 0.44 0.0 0 1 345.68 454.42
  L 457.78 454.43
  A 0.44 0.44 0.0 0 1 458.22 454.87
  L 458.21 481.26
  A 0.44 0.44 0.0 0 1 457.77 481.70
  L 376.02 481.70
  A 0.44 0.44 0.0 0 0 375.58 482.14
  L 375.55 509.87
  A 0.44 0.44 0.0 0 0 375.99 510.31
  Z"
/>
<path fill="#e7e6eb" d="
  M 541.36 559.93
  L 541.42 595.75
  A 0.62 0.61 -90.0 0 1 540.81 596.37
  L 511.60 596.40
  A 0.59 0.59 0.0 0 1 511.01 595.81
  L 511.01 455.02
  Q 511.01 454.46 511.57 454.46
  Q 554.88 454.35 584.67 454.52
  Q 594.27 454.58 604.90 459.18
  Q 622.91 466.98 630.97 483.78
  C 640.59 503.83 636.73 528.58 620.36 543.89
  Q 614.97 548.92 608.70 552.48
  A 0.36 0.36 0.0 0 0 608.57 552.97
  L 633.60 595.84
  Q 633.91 596.38 633.29 596.38
  L 599.96 596.34
  A 1.19 1.17 75.2 0 1 598.93 595.73
  L 579.48 559.78
  A 1.08 1.07 -13.7 0 0 578.53 559.21
  L 542.08 559.21
  Q 541.36 559.21 541.36 559.93
  Z
  M 541.43 481.90
  L 541.35 531.54
  A 0.64 0.64 0.0 0 0 541.99 532.19
  L 580.91 532.25
  A 24.57 24.56 -89.9 0 0 605.51 507.73
  L 605.51 505.95
  A 24.57 24.56 -89.9 0 0 580.99 481.33
  L 542.07 481.27
  A 0.64 0.64 0.0 0 0 541.43 481.90
  Z"
/>

</svg>
