<?xml version="1.0" encoding="utf-8"?>
<svg version="1.1" xmlns="http://www.w3.org/2000/svg" xmlns:xlink="http://www.w3.org/1999/xlink" x="0px" y="0px"
	 viewBox="0 0 202.1 54.1" style="enable-background:new 0 0 202.1 54.1;" xml:space="preserve">
<g>
	<polygon fill="#fff"  class="st0" points="0.3,17.1 0.1,36.1 25,19.6 49.1,36 49.2,17.1 24.6,0 	"/>
	<polygon fill="#fff"  class="st0" points="24.2,34.5 16.1,27.2 0.9,37.6 24.6,54.1 48.2,37.5 33.1,27.1 	"/>
	<polygon fill="#fff"  class="st0" points="70.4,27.7 64.2,13.2 59.2,13.2 67.9,33.5 72.6,33.5 81.4,13.2 76.7,13.2 	"/>
	<rect fill="#fff"  x="83" y="17.9" class="st0" width="4.5" height="15.6"/>
	<path fill="#fff" class="st0" d="M85.3,10.7c-0.8,0-1.5,0.2-2,0.7s-0.8,1.1-0.8,1.8s0.3,1.3,0.8,1.8s1.2,0.7,2,0.7c0.8,0,1.5-0.2,2-0.7
		s0.8-1.1,0.8-1.9c0-0.7-0.3-1.3-0.8-1.7S86.1,10.7,85.3,10.7z"/>
	<path fill="#fff" class="st0" d="M94.8,32.7c1.3,0.7,2.8,1,4.5,1c1.6,0,3.1-0.3,4.3-1c1.2-0.7,2.1-1.7,2.7-2.9l-3.5-1.9c-0.8,1.4-2,2.1-3.5,2.1
		c-1.2,0-2.2-0.4-2.9-1.2s-1.2-1.8-1.2-3.2s0.4-2.4,1.2-3.2s1.8-1.2,2.9-1.2c1.5,0,2.7,0.7,3.5,2.1l3.5-1.9
		c-0.6-1.3-1.5-2.3-2.7-2.9c-1.2-0.7-2.7-1-4.3-1c-1.7,0-3.2,0.3-4.5,1c-1.3,0.7-2.4,1.6-3.1,2.9c-0.7,1.2-1.1,2.6-1.1,4.1
		s0.4,2.9,1.1,4.1C92.4,31.1,93.5,32,94.8,32.7z"/>
	<path fill="#fff" class="st0" d="M120,18.7c-1.2-0.7-2.6-1-4.1-1c-1.6,0-3,0.3-4.2,1c-1.3,0.7-2.3,1.6-3,2.9c-0.7,1.2-1.1,2.6-1.1,4.1
		c0,1.5,0.4,2.9,1.1,4.1c0.7,1.2,1.8,2.2,3.1,2.9c1.4,0.7,2.9,1,4.7,1c2.8,0,5-0.8,6.4-2.5l-2.4-2.6c-0.5,0.5-1.1,0.9-1.8,1.1
		c-0.6,0.2-1.3,0.4-2.2,0.4c-1.2,0-2.2-0.3-3-0.8c-0.8-0.6-1.3-1.3-1.5-2.3h11.8c0.1-0.8,0.1-1.2,0.1-1.2c0-1.6-0.4-3-1.1-4.3
		C122.2,20.3,121.2,19.3,120,18.7z M112,24.4c0.2-1,0.6-1.8,1.3-2.4c0.7-0.6,1.6-0.9,2.6-0.9c1,0,1.9,0.3,2.6,0.9s1.1,1.4,1.3,2.4
		H112z"/>
	<path fill="#fff" class="st0" d="M131.4,32.5c1.7,0.9,3.5,1.3,5.6,1.3c1.8,0,3.4-0.3,4.8-0.9c1.4-0.6,2.6-1.5,3.6-2.7l-3-2.8
		c-1.4,1.6-3.1,2.4-5.1,2.4c-1.3,0-2.4-0.3-3.4-0.8c-1-0.6-1.8-1.3-2.3-2.3c-0.6-1-0.8-2.1-0.8-3.4c0-1.3,0.3-2.4,0.8-3.4
		c0.6-1,1.3-1.8,2.3-2.3c1-0.6,2.1-0.8,3.4-0.8c2,0,3.7,0.8,5.1,2.4l3-2.8c-1-1.2-2.2-2-3.6-2.7s-3-0.9-4.8-0.9
		c-2.1,0-4,0.5-5.6,1.3c-1.7,0.9-3,2.1-3.9,3.7c-1,1.6-1.4,3.4-1.4,5.4c0,2,0.5,3.8,1.4,5.4C128.4,30.4,129.7,31.6,131.4,32.5z"/>
	<path fill="#fff" class="st0" d="M162.6,29.9c0.7-1.2,1.1-2.6,1.1-4.1s-0.4-2.9-1.1-4.1s-1.8-2.2-3-2.9c-1.3-0.7-2.8-1-4.4-1s-3.1,0.3-4.4,1
		c-1.3,0.7-2.3,1.6-3.1,2.9c-0.7,1.2-1.1,2.6-1.1,4.1s0.4,2.9,1.1,4.1c0.7,1.2,1.8,2.2,3.1,2.9c1.3,0.7,2.8,1,4.4,1s3.1-0.3,4.4-1
		C160.8,32,161.8,31.1,162.6,29.9z M158,28.9c-0.7,0.8-1.7,1.2-2.9,1.2s-2.1-0.4-2.9-1.2s-1.1-1.8-1.1-3.1s0.4-2.4,1.1-3.1
		s1.7-1.2,2.9-1.2s2.1,0.4,2.9,1.2s1.1,1.8,1.1,3.1S158.7,28.1,158,28.9z"/>
	<path fill="#fff" class="st0" d="M169.4,32.8c1.2,0.7,2.5,1,4,1c2.1,0,3.8-0.7,4.9-2v1.8h4.3V12H178v7.6c-1.1-1.3-2.7-1.9-4.7-1.9
		c-1.5,0-2.8,0.3-4,1c-1.2,0.7-2.1,1.6-2.8,2.8s-1,2.6-1,4.2s0.3,3,1,4.2C167.3,31.2,168.2,32.1,169.4,32.8z M171.3,22.6
		c0.8-0.8,1.7-1.2,2.9-1.2c1.1,0,2.1,0.4,2.8,1.2s1.1,1.8,1.1,3.1s-0.4,2.4-1.1,3.1s-1.7,1.2-2.8,1.2c-1.2,0-2.1-0.4-2.9-1.2
		s-1.1-1.8-1.1-3.1S170.5,23.4,171.3,22.6z"/>
	<path fill="#fff" class="st0" d="M201,21.5c-0.7-1.2-1.7-2.2-2.9-2.8c-1.2-0.7-2.6-1-4.1-1c-1.6,0-3,0.3-4.2,1c-1.3,0.7-2.3,1.6-3,2.9
		c-0.7,1.2-1.1,2.6-1.1,4.1c0,1.5,0.4,2.9,1.1,4.1c0.7,1.2,1.8,2.2,3.1,2.9c1.4,0.7,2.9,1,4.7,1c2.8,0,5-0.8,6.4-2.5l-2.4-2.6
		c-0.5,0.5-1.1,0.9-1.8,1.1c-0.6,0.2-1.3,0.4-2.2,0.4c-1.2,0-2.2-0.3-3-0.8c-0.8-0.6-1.3-1.3-1.5-2.3h11.8c0.1-0.8,0.1-1.2,0.1-1.2
		C202,24.2,201.7,22.7,201,21.5z M190.1,24.4c0.2-1,0.6-1.8,1.3-2.4c0.7-0.6,1.6-0.9,2.6-0.9c1,0,1.9,0.3,2.6,0.9s1.1,1.4,1.3,2.4
		H190.1z"/>
	<path fill="#fff" class="st0" d="M63.4,44.9c0.3-0.2,0.7-0.3,1.2-0.3c0.7,0,1.2,0.2,1.7,0.7l0.8-0.7c-0.3-0.3-0.7-0.6-1.1-0.8
		c-0.4-0.2-0.9-0.3-1.4-0.3c-0.6,0-1.2,0.1-1.7,0.4c-0.5,0.3-0.9,0.7-1.2,1.2c-0.3,0.5-0.4,1-0.4,1.7c0,0.6,0.1,1.2,0.4,1.7
		c0.3,0.5,0.7,0.9,1.2,1.2c0.5,0.3,1.1,0.4,1.7,0.4c0.5,0,1-0.1,1.4-0.3c0.4-0.2,0.8-0.4,1.1-0.8l-0.8-0.7c-0.5,0.5-1,0.7-1.7,0.7
		c-0.4,0-0.8-0.1-1.2-0.3c-0.3-0.2-0.6-0.5-0.8-0.8s-0.3-0.7-0.3-1.1c0-0.4,0.1-0.8,0.3-1.1S63.1,45.1,63.4,44.9z"/>
	<path fill="#fff" class="st0" d="M72.6,44c-0.5-0.3-1.1-0.4-1.7-0.4s-1.2,0.1-1.7,0.4s-0.9,0.7-1.2,1.2c-0.3,0.5-0.4,1-0.4,1.7
		c0,0.6,0.1,1.2,0.4,1.7c0.3,0.5,0.7,0.9,1.2,1.2c0.5,0.3,1.1,0.4,1.7,0.4s1.2-0.1,1.7-0.4c0.5-0.3,0.9-0.7,1.2-1.2
		c0.3-0.5,0.4-1,0.4-1.7c0-0.6-0.1-1.2-0.4-1.7C73.5,44.7,73.1,44.3,72.6,44z M72.8,48c-0.2,0.3-0.5,0.6-0.8,0.8
		c-0.3,0.2-0.7,0.3-1.1,0.3s-0.8-0.1-1.1-0.3c-0.3-0.2-0.6-0.5-0.8-0.8c-0.2-0.3-0.3-0.7-0.3-1.1c0-0.4,0.1-0.8,0.3-1.1
		c0.2-0.3,0.5-0.6,0.8-0.8c0.3-0.2,0.7-0.3,1.1-0.3s0.8,0.1,1.1,0.3c0.3,0.2,0.6,0.5,0.8,0.8c0.2,0.3,0.3,0.7,0.3,1.1
		C73.1,47.2,73,47.6,72.8,48z"/>
	<path fill="#fff" class="st0" d="M79.7,46.7c0.3-0.1,0.5-0.3,0.7-0.5c0.2-0.2,0.2-0.5,0.2-0.9c0-0.5-0.2-0.9-0.6-1.2s-0.9-0.4-1.7-0.4h-2.8V50
		h3c0.8,0,1.4-0.2,1.8-0.5c0.4-0.3,0.6-0.7,0.6-1.3c0-0.4-0.1-0.7-0.3-1C80.4,47,80.1,46.8,79.7,46.7z M76.7,44.6h1.6
		c0.4,0,0.7,0.1,0.9,0.2c0.2,0.2,0.3,0.4,0.3,0.7s-0.1,0.5-0.3,0.7c-0.2,0.2-0.5,0.2-0.9,0.2h-1.6V44.6z M78.5,49.1h-1.8v-1.9h1.8
		c0.8,0,1.2,0.3,1.2,0.9C79.8,48.8,79.4,49.1,78.5,49.1z"/>
	<path fill="#fff"  class="st0" d="M86.3,43.9c-0.4-0.2-0.9-0.3-1.4-0.3h-2.6V50h1.2v-1.8h1.4c0.5,0,1-0.1,1.4-0.3c0.4-0.2,0.7-0.4,0.9-0.8
		s0.3-0.7,0.3-1.2c0-0.5-0.1-0.9-0.3-1.2S86.7,44.1,86.3,43.9z M86,46.8c-0.3,0.2-0.7,0.3-1.2,0.3h-1.4v-2.5h1.4
		c0.5,0,0.9,0.1,1.2,0.3c0.3,0.2,0.4,0.5,0.4,0.9C86.4,46.3,86.2,46.6,86,46.8z"/>
	<polygon fill="#fff"  class="st0" points="89.8,47.2 92.9,47.2 92.9,46.3 89.8,46.3 89.8,44.6 93.3,44.6 93.3,43.7 88.7,43.7 88.7,50 93.4,50
		93.4,49 89.8,49 	"/>
	<polygon fill="#fff"  class="st0" points="100.6,43.7 98.2,47.8 95.7,43.7 94.7,43.7 94.7,50 95.8,50 95.8,45.8 97.9,49.2 98.4,49.2 100.5,45.8
		100.5,50 101.6,50 101.6,43.7 	"/>
	<polygon fill="#fff"  class="st0" points="104.5,47.2 107.6,47.2 107.6,46.3 104.5,46.3 104.5,44.6 108,44.6 108,43.7 103.4,43.7 103.4,50
		108.1,50 108.1,49 104.5,49 	"/>
	<polygon fill="#fff"  class="st0" points="113.8,46.3 110.6,46.3 110.6,43.7 109.4,43.7 109.4,50 110.6,50 110.6,47.3 113.8,47.3 113.8,50
		115,50 115,43.7 113.8,43.7 	"/>
	<polygon fill="#fff"  class="st0" points="121.2,46.3 117.9,46.3 117.9,43.7 116.8,43.7 116.8,50 117.9,50 117.9,47.3 121.2,47.3 121.2,50
		122.3,50 122.3,43.7 121.2,43.7 	"/>
	<rect fill="#fff"  x="130.3" y="43.7" class="st0" width="1.2" height="6.3"/>
	<path  fill="#fff"  class="st0" d="M127,45.8h-1.7v-2.1h-1.2V50h2.7c0.8,0,1.4-0.2,1.9-0.6c0.4-0.4,0.7-0.9,0.7-1.6c0-0.7-0.2-1.2-0.6-1.5
		C128.4,46,127.8,45.8,127,45.8z M127.8,48.7c-0.2,0.2-0.6,0.3-1.1,0.3h-1.5v-2.4h1.5c0.9,0,1.4,0.4,1.4,1.1
		C128.2,48.2,128.1,48.5,127.8,48.7z"/>
	<polygon fill="#fff"  class="st0" points="134.4,47.2 137.4,47.2 137.4,46.3 134.4,46.3 134.4,44.6 137.8,44.6 137.8,43.7 133.2,43.7 133.2,50
		137.9,50 137.9,49 134.4,49 	"/>
	<rect fill="#fff"  x="141.7" y="43.7" class="st0" width="1.2" height="6.3"/>
	<polygon fill="#fff"  class="st0" points="143.7,44.7 145.8,44.7 145.8,50 147,50 147,44.7 149.1,44.7 149.1,43.7 143.7,43.7 	"/>
	<rect fill="#fff"  x="149.3" y="47" class="st0" width="2.5" height="0.9"/>
	<path fill="#fff"  class="st0" d="M157.2,43.9c-0.4-0.2-0.9-0.3-1.4-0.3h-2.6V50h1.2v-1.8h1.4c0.5,0,1-0.1,1.4-0.3s0.7-0.4,0.9-0.8
		s0.3-0.7,0.3-1.2c0-0.5-0.1-0.9-0.3-1.2S157.6,44.1,157.2,43.9z M156.9,46.8c-0.3,0.2-0.7,0.3-1.2,0.3h-1.4v-2.5h1.4
		c0.5,0,0.9,0.1,1.2,0.3c0.3,0.2,0.4,0.5,0.4,0.9C157.3,46.3,157.1,46.6,156.9,46.8z"/>
	<polygon fill="#fff"  class="st0" points="160.7,47.2 163.7,47.2 163.7,46.3 160.7,46.3 160.7,44.6 164.1,44.6 164.1,43.7 159.5,43.7 159.5,50
		164.3,50 164.3,49 160.7,49 	"/>
	<polygon fill="#fff"  class="st0" points="172.5,49 170.2,49 170.2,43.7 169.1,43.7 169.1,49 166.7,49 166.7,43.7 165.6,43.7 165.6,50 173.7,50
		173.7,43.7 172.5,43.7 	"/>
	<polygon fill="#fff"  class="st0" points="176.6,47.2 179.7,47.2 179.7,46.3 176.6,46.3 176.6,44.6 180,44.6 180,43.7 175.4,43.7 175.4,50
		180.2,50 180.2,49 176.6,49 	"/>
	<polygon fill="#fff"  class="st0" points="185.9,46.3 182.6,46.3 182.6,43.7 181.5,43.7 181.5,50 182.6,50 182.6,47.3 185.9,47.3 185.9,50
		187.1,50 187.1,43.7 185.9,43.7 	"/>
	<polygon fill="#fff"  class="st0" points="190,48.1 190,43.7 188.8,43.7 188.8,50 189.9,50 193.3,45.5 193.3,50 194.5,50 194.5,43.7 193.4,43.7
			"/>
	<path fill="#fff"  class="st0" d="M197,43.9c-0.4,0.2-0.7,0.4-0.9,0.8c-0.2,0.3-0.3,0.8-0.3,1.2c0,0.5,0.1,0.9,0.4,1.3c0.2,0.4,0.6,0.6,1,0.8
		l-1.3,1.9h1.2l1.2-1.8h0.1h1.6V50h1.2v-6.3h-2.6C197.9,43.7,197.4,43.8,197,43.9z M199.9,44.7v2.6h-1.5c-0.5,0-0.8-0.1-1.1-0.3
		c-0.2-0.2-0.4-0.5-0.4-1c0-0.4,0.1-0.8,0.4-1c0.3-0.2,0.6-0.3,1.1-0.3H199.9z"/>
</g>
</svg>
