<?xml version="1.0" encoding="UTF-8" standalone="no"?>
<svg xmlns="http://www.w3.org/2000/svg" version="1.1" viewBox="0.00 0.00 533.00 148.00">
<g stroke-width="2.00" fill="none" stroke-linecap="butt">
<path stroke="#2d9dc8" vector-effect="non-scaling-stroke" d="
  M 87.49 20.16
  Q 86.78 21.21 85.72 21.53
  Q 85.06 21.74 85.62 22.11
  Q 85.74 22.19 85.73 22.43
  Q 85.69 23.00 85.12 23.03
  Q 84.42 23.07 83.80 23.39
  Q 83.30 23.65 82.89 23.27
  Q 82.15 22.58 81.20 22.39
  A 1.09 1.09 0.0 0 0 80.37 22.56
  L 78.75 23.67
  Q 78.20 24.06 77.80 23.51
  Q 77.71 23.39 77.56 23.38
  Q 77.00 23.33 76.56 23.61
  Q 76.04 23.94 75.43 24.08
  Q 75.05 24.16 74.90 24.53
  Q 74.88 24.59 74.93 24.62
  Q 75.62 24.99 74.84 25.10
  Q 73.60 25.29 72.61 26.12
  Q 72.26 26.41 71.87 26.20
  Q 71.39 25.95 71.00 26.34
  C 70.35 26.98 69.32 27.17 68.66 26.43
  Q 68.33 26.06 67.87 26.25
  C 67.13 26.56 66.58 27.25 65.85 27.38
  Q 65.53 27.44 65.25 27.29
  Q 64.72 27.00 64.39 27.51
  Q 64.09 27.97 63.68 28.09"
/>
<path stroke="#2d9dc8" vector-effect="non-scaling-stroke" d="
  M 26.71 45.27
  Q 26.31 46.28 25.24 46.17
  Q 24.74 46.12 24.32 46.39
  Q 24.01 46.59 23.65 46.58
  Q 23.21 46.58 22.79 46.68
  Q 12.02 49.14 5.64 58.22"
/>

</g>
<path fill="#2fa5d2" d="
  M 0.74 0.00
  L 58.75 0.00
  Q 78.54 2.69 87.49 20.16
  Q 86.78 21.21 85.72 21.53
  Q 85.06 21.74 85.62 22.11
  Q 85.74 22.19 85.73 22.43
  Q 85.69 23.00 85.12 23.03
  Q 84.42 23.07 83.80 23.39
  Q 83.30 23.65 82.89 23.27
  Q 82.15 22.58 81.20 22.39
  A 1.09 1.09 0.0 0 0 80.37 22.56
  L 78.75 23.67
  Q 78.20 24.06 77.80 23.51
  Q 77.71 23.39 77.56 23.38
  Q 77.00 23.33 76.56 23.61
  Q 76.04 23.94 75.43 24.08
  Q 75.05 24.16 74.90 24.53
  Q 74.88 24.59 74.93 24.62
  Q 75.62 24.99 74.84 25.10
  Q 73.60 25.29 72.61 26.12
  Q 72.26 26.41 71.87 26.20
  Q 71.39 25.95 71.00 26.34
  C 70.35 26.98 69.32 27.17 68.66 26.43
  Q 68.33 26.06 67.87 26.25
  C 67.13 26.56 66.58 27.25 65.85 27.38
  Q 65.53 27.44 65.25 27.29
  Q 64.72 27.00 64.39 27.51
  Q 64.09 27.97 63.68 28.09
  Q 60.29 24.53 56.51 24.53
  Q 40.99 24.50 25.55 24.54
  Q 25.05 24.54 25.07 25.04
  Q 25.35 35.05 25.15 41.24
  Q 25.06 43.89 26.71 45.27
  Q 26.31 46.28 25.24 46.17
  Q 24.74 46.12 24.32 46.39
  Q 24.01 46.59 23.65 46.58
  Q 23.21 46.58 22.79 46.68
  Q 12.02 49.14 5.64 58.22
  C 0.33 49.97 0.73 43.96 0.73 32.39
  Q 0.72 16.20 0.74 0.00
  Z"
/>
<path fill="#1f96cc" d="
  M 533.00 14.40
  L 533.00 137.73
  Q 531.01 146.16 522.62 148.00
  L 399.26 148.00
  Q 392.95 146.46 390.45 141.60
  Q 389.00 138.79 389.00 135.79
  Q 389.01 77.71 388.98 16.59
  C 388.98 11.41 391.72 6.81 396.52 4.93
  Q 398.87 4.00 403.82 4.00
  Q 462.16 4.01 520.50 3.99
  Q 530.54 3.99 533.00 14.40
  Z
  M 428.96 25.59
  A 0.37 0.37 0.0 0 0 428.59 25.22
  L 411.31 25.22
  A 0.37 0.37 0.0 0 0 410.94 25.59
  L 410.94 127.63
  A 0.37 0.37 0.0 0 0 411.31 128.00
  L 428.59 128.00
  A 0.37 0.37 0.0 0 0 428.96 127.63
  L 428.96 25.59
  Z
  M 470.35 40.74
  A 0.35 0.35 0.0 0 1 470.70 41.09
  L 470.69 127.65
  A 0.35 0.35 0.0 0 0 471.04 128.00
  L 488.34 128.00
  A 0.35 0.35 0.0 0 0 488.69 127.65
  L 488.69 41.10
  A 0.35 0.35 0.0 0 1 489.04 40.75
  L 521.07 40.73
  A 0.35 0.35 0.0 0 0 521.42 40.38
  L 521.44 25.57
  A 0.35 0.35 0.0 0 0 521.09 25.22
  L 438.48 25.24
  A 0.35 0.35 0.0 0 0 438.13 25.59
  L 438.15 40.39
  A 0.35 0.35 0.0 0 0 438.50 40.74
  L 470.35 40.74
  Z"
/>
<path fill="#2a95bd" d="
  M 87.49 20.16
  Q 94.41 35.64 87.26 50.77
  Q 87.03 51.24 87.49 51.51
  C 103.18 60.82 111.18 78.41 107.28 96.26
  C 103.99 111.34 92.00 123.65 77.15 127.45
  Q 71.58 128.87 61.67 128.82
  Q 31.12 128.66 1.60 128.77
  Q 0.74 128.77 0.74 127.92
  Q 0.71 101.60 0.74 76.86
  C 0.76 69.28 1.85 64.17 5.64 58.22
  Q 12.02 49.14 22.79 46.68
  Q 23.21 46.58 23.65 46.58
  Q 24.01 46.59 24.32 46.39
  Q 24.74 46.12 25.24 46.17
  Q 26.31 46.28 26.71 45.27
  C 27.42 45.65 28.18 46.02 29.02 46.02
  Q 41.56 45.96 54.53 46.04
  C 64.48 46.09 70.20 36.12 63.68 28.09
  Q 64.09 27.97 64.39 27.51
  Q 64.72 27.00 65.25 27.29
  Q 65.53 27.44 65.85 27.38
  C 66.58 27.25 67.13 26.56 67.87 26.25
  Q 68.33 26.06 68.66 26.43
  C 69.32 27.17 70.35 26.98 71.00 26.34
  Q 71.39 25.95 71.87 26.20
  Q 72.26 26.41 72.61 26.12
  Q 73.60 25.29 74.84 25.10
  Q 75.62 24.99 74.93 24.62
  Q 74.88 24.59 74.90 24.53
  Q 75.05 24.16 75.43 24.08
  Q 76.04 23.94 76.56 23.61
  Q 77.00 23.33 77.56 23.38
  Q 77.71 23.39 77.80 23.51
  Q 78.20 24.06 78.75 23.67
  L 80.37 22.56
  A 1.09 1.09 0.0 0 1 81.20 22.39
  Q 82.15 22.58 82.89 23.27
  Q 83.30 23.65 83.80 23.39
  Q 84.42 23.07 85.12 23.03
  Q 85.69 23.00 85.73 22.43
  Q 85.74 22.19 85.62 22.11
  Q 85.06 21.74 85.72 21.53
  Q 86.78 21.21 87.49 20.16
  Z
  M 64.37 70.52
  C 52.64 70.87 40.79 70.48 28.89 70.56
  A 3.74 3.74 0.0 0 0 25.18 74.30
  L 25.18 103.70
  Q 25.18 104.26 25.74 104.26
  Q 45.74 104.15 63.97 104.28
  Q 69.15 104.32 72.09 103.40
  C 81.39 100.51 86.44 89.75 82.44 80.80
  C 79.00 73.08 72.41 70.28 64.37 70.52
  Z"
/>

<path fill="#1f96cc" d="
  M 145.38 96.29
  Q 149.07 104.39 158.15 106.16
  Q 171.66 108.81 186.10 101.16
  A 0.26 0.26 0.0 0 1 186.46 101.30
  L 193.71 120.00
  Q 193.92 120.54 193.45 120.87
  C 183.99 127.35 173.64 129.59 162.15 129.88
  Q 147.67 130.24 135.67 123.12
  C 114.87 110.79 110.81 80.01 124.11 60.90
  C 145.49 30.18 200.07 38.54 201.79 79.95
  Q 202.11 87.74 200.42 94.84
  A 0.71 0.70 -83.2 0 1 199.74 95.38
  L 145.97 95.38
  Q 144.96 95.38 145.38 96.29
  Z
  M 145.00 77.18
  L 174.18 76.82
  A 0.17 0.17 0.0 0 0 174.35 76.65
  L 174.35 76.53
  A 14.66 11.23 -0.7 0 0 159.55 65.48
  L 159.35 65.48
  A 14.66 11.23 -0.7 0 0 144.83 76.89
  L 144.83 77.01
  A 0.17 0.17 0.0 0 0 145.00 77.18
  Z"
/>
<path fill="#1f96cc" d="
  M 254.31 78.89
  C 254.68 66.76 247.32 64.35 236.97 65.90
  Q 229.57 67.01 222.18 70.42
  A 0.57 0.57 0.0 0 1 221.40 70.09
  L 214.92 51.03
  Q 214.75 50.51 215.23 50.25
  Q 230.84 41.94 248.23 42.44
  C 271.03 43.09 280.19 56.03 280.18 78.04
  Q 280.16 101.33 280.16 127.17
  Q 280.16 127.77 279.57 127.77
  L 256.69 127.77
  Q 256.11 127.77 256.11 127.19
  L 256.17 120.58
  A 0.17 0.17 0.0 0 0 255.87 120.47
  C 250.82 126.50 242.45 128.70 235.17 128.78
  C 223.79 128.90 213.57 123.86 209.76 112.80
  Q 206.90 104.50 208.78 95.80
  Q 212.04 80.69 227.69 76.47
  Q 241.60 72.72 253.72 79.23
  Q 254.28 79.53 254.31 78.89
  Z
  M 253.80 95.96
  C 249.88 93.71 244.99 92.92 240.57 94.03
  C 237.04 94.91 234.78 98.31 236.21 101.76
  C 238.80 108.06 250.72 106.09 254.01 101.80
  A 1.32 1.28 -27.3 0 0 254.29 100.97
  L 254.28 96.79
  Q 254.28 96.24 253.80 95.96
  Z"
/>
<path fill="#1f96cc" d="
  M 344.71 120.07
  Q 337.54 128.37 326.16 129.64
  C 305.50 131.95 293.75 117.25 293.61 97.83
  Q 293.43 72.38 293.57 45.30
  Q 293.57 44.64 294.24 44.64
  L 320.55 44.62
  Q 321.26 44.62 321.26 45.32
  Q 321.21 70.41 321.26 91.72
  C 321.28 98.96 325.49 104.93 333.32 103.97
  Q 340.08 103.14 344.92 96.85
  Q 345.29 96.37 345.29 95.77
  L 345.29 44.98
  A 0.36 0.35 90.0 0 1 345.64 44.62
  L 372.66 44.62
  A 0.34 0.34 0.0 0 1 373.00 44.96
  L 373.00 127.26
  Q 373.00 127.77 372.49 127.77
  L 345.78 127.77
  Q 345.29 127.77 345.29 127.28
  L 345.27 120.27
  Q 345.27 119.42 344.71 120.07
  Z"
/>
</svg>
