<?xml version="1.0" encoding="UTF-8"?>
<svg xmlns="http://www.w3.org/2000/svg" width="381" height="48" viewBox="0 0 381 48" fill="none">
    <path d="M243 29.5533C243 25.8937 243.745 22.7022 245.234 19.9788C246.723 17.2128 248.787 15.0851 251.426 13.5957C254.064 12.0638 257.085 11.2979 260.489 11.2979C264.872 11.2979 268.489 12.4042 271.341 14.617C274.234 16.7872 276.17 19.8511 277.149 23.8086H267.511C267 22.2766 266.128 21.0851 264.894 20.2341C263.702 19.3404 262.213 18.8936 260.426 18.8936C257.872 18.8936 255.851 19.8298 254.362 21.7022C252.872 23.532 252.128 26.149 252.128 29.5533C252.128 32.915 252.872 35.532 254.362 37.4044C255.851 39.2342 257.872 40.1491 260.426 40.1491C264.043 40.1491 266.404 38.532 267.511 35.298H277.149C276.17 39.1278 274.234 42.1704 271.341 44.4257C268.447 46.681 264.83 47.8087 260.489 47.8087C257.085 47.8087 254.064 47.064 251.426 45.5746C248.787 44.0427 246.723 41.915 245.234 39.1916C243.745 36.4256 243 33.2129 243 29.5533Z"
          fill="#32C38C"></path>
    <path d="M281.398 29.4256C281.398 25.8511 282.1 22.6809 283.504 19.9149C284.951 17.1489 286.887 15.0213 289.313 13.5319C291.781 12.0425 294.526 11.2979 297.547 11.2979C300.185 11.2979 302.483 11.8298 304.44 12.8936C306.441 13.9574 308.036 15.2979 309.228 16.9149V11.8723H318.228V47.2342H309.228V42.064C308.079 43.7236 306.483 45.1066 304.44 46.2129C302.44 47.2768 300.121 47.8087 297.483 47.8087C294.504 47.8087 291.781 47.0427 289.313 45.5108C286.887 43.9789 284.951 41.8299 283.504 39.064C282.1 36.2554 281.398 33.0427 281.398 29.4256ZM309.228 29.5533C309.228 27.383 308.802 25.532 307.951 24C307.1 22.4256 305.951 21.2341 304.504 20.4256C303.057 19.5745 301.504 19.149 299.845 19.149C298.185 19.149 296.653 19.5532 295.249 20.3617C293.845 21.1702 292.696 22.3617 291.802 23.9362C290.951 25.4681 290.526 27.2979 290.526 29.4256C290.526 31.5533 290.951 33.4256 291.802 35.0427C292.696 36.6171 293.845 37.8299 295.249 38.681C296.696 39.532 298.228 39.9576 299.845 39.9576C301.504 39.9576 303.057 39.5533 304.504 38.7448C305.951 37.8937 307.1 36.7022 307.951 35.1703C308.802 33.5958 309.228 31.7235 309.228 29.5533Z"
          fill="#32C38C"></path>
    <path d="M335.892 17.3617C337.041 15.4894 338.53 14.0213 340.36 12.9574C342.232 11.8936 344.36 11.3617 346.743 11.3617V20.7447H344.381C341.573 20.7447 339.445 21.4043 337.998 22.7234C336.594 24.0426 335.892 26.3405 335.892 29.6171V47.2342H326.956V11.8723H335.892V17.3617Z"
          fill="#32C38C"></path>
    <path d="M366.294 47.8087C363.4 47.8087 360.804 47.298 358.507 46.2768C356.209 45.2129 354.379 43.7874 353.017 42.0001C351.698 40.2129 350.975 38.2342 350.847 36.0639H359.847C360.017 37.4257 360.677 38.5533 361.826 39.4469C363.017 40.3406 364.485 40.7874 366.23 40.7874C367.932 40.7874 369.251 40.4469 370.188 39.7661C371.166 39.0852 371.656 38.2129 371.656 37.1491C371.656 36.0001 371.06 35.149 369.868 34.5959C368.719 34.0001 366.868 33.3618 364.315 32.6809C361.677 32.0426 359.507 31.3831 357.804 30.7022C356.145 30.0214 354.698 28.9788 353.464 27.5745C352.273 26.1703 351.677 24.2766 351.677 21.8937C351.677 19.9362 352.23 18.149 353.336 16.5319C354.485 14.9149 356.102 13.6383 358.187 12.7021C360.315 11.7659 362.805 11.2979 365.656 11.2979C369.868 11.2979 373.23 12.3617 375.741 14.4894C378.251 16.5745 379.634 19.4043 379.89 22.9788H371.336C371.209 21.5745 370.613 20.4681 369.549 19.6596C368.528 18.8085 367.145 18.383 365.4 18.383C363.783 18.383 362.528 18.6809 361.634 19.2766C360.783 19.8724 360.358 20.7022 360.358 21.766C360.358 22.9575 360.953 23.8724 362.145 24.5107C363.336 25.1064 365.187 25.7235 367.698 26.3618C370.251 27.0001 372.358 27.6596 374.017 28.3405C375.677 29.0214 377.102 30.0852 378.294 31.532C379.528 32.9363 380.166 34.8086 380.209 37.1491C380.209 39.1916 379.634 41.0214 378.485 42.6385C377.379 44.2555 375.762 45.5321 373.634 46.4683C371.549 47.3619 369.102 47.8087 366.294 47.8087Z"
          fill="#32C38C"></path>
    <path d="M50.629 0V47.2343H41.6928V0H50.629Z" fill="#0075F6"></path>
    <path d="M96.5553 29.5534C96.5553 25.8938 97.3 22.7023 98.7893 19.9788C100.279 17.2129 102.343 15.0852 104.981 13.5958C107.619 12.0639 110.64 11.2979 114.045 11.2979C118.428 11.2979 122.045 12.4043 124.896 14.6171C127.789 16.7873 129.726 19.8512 130.704 23.8086H121.066C120.555 22.2767 119.683 21.0852 118.449 20.2342C117.258 19.3405 115.768 18.8937 113.981 18.8937C111.428 18.8937 109.406 19.8299 107.917 21.7022C106.428 23.532 105.683 26.1491 105.683 29.5534C105.683 32.9151 106.428 35.5321 107.917 37.4045C109.406 39.2343 111.428 40.1492 113.981 40.1492C117.598 40.1492 119.96 38.5321 121.066 35.2981H130.704C129.726 39.1279 127.789 42.1704 124.896 44.4258C122.002 46.6811 118.385 47.8088 114.045 47.8088C110.64 47.8088 107.619 47.0641 104.981 45.5747C102.343 44.0428 100.279 41.9151 98.7893 39.1917C97.3 36.4257 96.5553 33.2129 96.5553 29.5534Z"
          fill="#0075F6"></path>
    <path d="M147.655 19.2129V36.3193C147.655 37.5108 147.932 38.3832 148.485 38.9364C149.081 39.447 150.06 39.7023 151.421 39.7023H155.57V47.2343H149.953C142.421 47.2343 138.655 43.5747 138.655 36.2555V19.2129H134.442V11.8724H138.655V3.12767H147.655V11.8724H155.57V19.2129H147.655Z"
          fill="#0075F6"></path>
    <path d="M170.934 17.3618C172.083 15.4894 173.572 14.0214 175.402 12.9575C177.274 11.8937 179.402 11.3618 181.785 11.3618V20.7448H179.423C176.615 20.7448 174.487 21.4044 173.04 22.7235C171.636 24.0427 170.934 26.3406 170.934 29.6172V47.2343H161.998V11.8724H170.934V17.3618Z"
          fill="#0075F6"></path>
    <path d="M203.506 47.8088C200.102 47.8088 197.038 47.0641 194.315 45.5747C191.591 44.0428 189.442 41.8938 187.868 39.1279C186.336 36.3619 185.57 33.1704 185.57 29.5534C185.57 25.9363 186.357 22.7448 187.932 19.9788C189.549 17.2129 191.74 15.0852 194.506 13.5958C197.272 12.0639 200.357 11.2979 203.762 11.2979C207.166 11.2979 210.251 12.0639 213.017 13.5958C215.783 15.0852 217.953 17.2129 219.528 19.9788C221.145 22.7448 221.953 25.9363 221.953 29.5534C221.953 33.1704 221.123 36.3619 219.464 39.1279C217.847 41.8938 215.634 44.0428 212.825 45.5747C210.059 47.0641 206.953 47.8088 203.506 47.8088ZM203.506 40.0215C205.123 40.0215 206.634 39.6385 208.038 38.8726C209.485 38.064 210.634 36.8725 211.485 35.2981C212.336 33.7236 212.762 31.8087 212.762 29.5534C212.762 26.1916 211.868 23.6171 210.081 21.8299C208.336 20.0001 206.187 19.0852 203.634 19.0852C201.081 19.0852 198.932 20.0001 197.187 21.8299C195.485 23.6171 194.634 26.1916 194.634 29.5534C194.634 32.9151 195.464 35.5108 197.123 37.3406C198.825 39.1279 200.953 40.0215 203.506 40.0215Z"
          fill="#0075F6"></path>
    <path fill-rule="evenodd" clip-rule="evenodd"
          d="M34.9415 32.0707C35.0941 31.0907 35.1704 29.9963 35.1704 28.7874C35.1704 25.3406 34.4257 22.298 32.9364 19.6597C31.4895 16.9788 29.4257 14.915 26.7448 13.4681C24.1065 12.0213 21.1065 11.2979 17.7448 11.2979C14.2554 11.2979 11.1703 12.0426 8.48941 13.532C5.80854 15.0213 3.72343 17.149 2.23406 19.915C0.744685 22.681 0 25.8937 0 29.5533C0 30.4167 0.0424265 31.2558 0.12728 32.0707H34.9415ZM23.4257 20.7448C25.0427 22.1065 25.8725 23.9363 25.915 26.2342H9.12771C9.46814 23.8512 10.383 22.0001 11.8724 20.681C13.4043 19.3192 15.2767 18.6384 17.4895 18.6384C19.8299 18.6384 21.8086 19.3405 23.4257 20.7448Z"
          fill="#0075F6"></path>
    <path d="M23.8701 37.4158H33.8347C32.7348 40.2469 30.9247 42.6261 28.4044 44.5534C25.5108 46.7237 21.9576 47.8088 17.7448 47.8088C14.3405 47.8088 11.2767 47.0641 8.55324 45.5747C5.87237 44.0428 3.76598 41.8938 2.23406 39.1279C1.93594 38.5742 1.66765 38.0035 1.42921 37.4158H10.9741C11.2098 37.7058 11.4666 37.9787 11.7447 38.2342C13.3192 39.6811 15.2554 40.4045 17.5533 40.4045C20.328 40.4045 22.4336 39.4082 23.8701 37.4158Z"
          fill="#0075F6"></path>
    <path fill-rule="evenodd" clip-rule="evenodd"
          d="M92.1012 32.0707C92.2539 31.0907 92.3302 29.9963 92.3302 28.7874C92.3302 25.3406 91.5855 22.298 90.0961 19.6597C88.6493 16.9788 86.5855 14.915 83.9046 13.4681C81.2663 12.0213 78.2663 11.2979 74.9046 11.2979C71.4152 11.2979 68.3301 12.0426 65.6492 13.532C62.9683 15.0213 60.8832 17.149 59.3938 19.915C57.9045 22.681 57.1598 25.8937 57.1598 29.5533C57.1598 30.4167 57.2022 31.2558 57.2871 32.0707H92.1012ZM80.5854 20.7448C82.2025 22.1065 83.0323 23.9363 83.0748 26.2342H66.2875C66.6279 23.8512 67.5428 22.0001 69.0322 20.681C70.5641 19.3192 72.4365 18.6384 74.6492 18.6384C76.9897 18.6384 78.9684 19.3405 80.5854 20.7448Z"
          fill="#0075F6"></path>
    <path d="M81.0299 37.4158H90.9945C89.8946 40.2469 88.0845 42.6261 85.5642 44.5534C82.6706 46.7237 79.1174 47.8088 74.9046 47.8088C71.5003 47.8088 68.4364 47.0641 65.713 45.5747C63.0322 44.0428 60.9258 41.8938 59.3938 39.1279C59.0957 38.5742 58.8274 38.0035 58.589 37.4158H68.1339C68.3695 37.7058 68.6264 37.9787 68.9045 38.2342C70.479 39.6811 72.4152 40.4045 74.7131 40.4045C77.4878 40.4045 79.5934 39.4082 81.0299 37.4158Z"
          fill="#0075F6"></path>
    <path d="M232.466 47.6815C230.849 47.6815 229.509 47.1922 228.445 46.2134C227.424 45.1921 226.913 43.9368 226.913 42.4475C226.913 40.9581 227.424 39.724 228.445 38.7453C229.509 37.724 230.849 37.2134 232.466 37.2134C234.041 37.2134 235.339 37.724 236.36 38.7453C237.381 39.724 237.892 40.9581 237.892 42.4475C237.892 43.9368 237.381 45.1921 236.36 46.2134C235.339 47.1922 234.041 47.6815 232.466 47.6815Z"
          fill="#0075F6"></path>
</svg>